<?xml version="1.0" encoding="utf-8"?>
<!-- Generator: Adobe Illustrator 21.0.0, SVG Export Plug-In . SVG Version: 6.00 Build 0)  -->
<svg version="1.1" id="Layer_1" xmlns="http://www.w3.org/2000/svg" xmlns:xlink="http://www.w3.org/1999/xlink" x="0px" y="0px"
	 viewBox="0 0 593 270" style="enable-background:new 0 0 593 270;" xml:space="preserve">
<style type="text/css">
	.st0{fill:#056CB6;}
	.st1{fill:#262626;}
</style>
<path class="st0" d="M97.5,60.2h4.1v101h-4.1v-19.8c-2,4.3-4.6,7.9-7.4,10.7c-7.3,7.2-16.2,10.7-26.6,10.7c-10.6,0-19.6-3.7-27-11
	c-7.4-7.3-11-16.4-11-27c0-10.8,3.6-19.8,10.9-27c7.3-7.2,16.3-10.8,27.3-10.8c11.1,0,20.4,4,28,12.1c2,2.2,4.1,5.1,5.8,8.8V60.2z
	 M63.4,90.7c-9.4,0-17.5,3.3-24.1,9.9c-6.6,6.6-9.9,14.6-9.9,24.1c0,9.5,3.3,17.7,9.9,24.4c6.6,6.8,14.6,10.2,24.1,10.2
	c9.5,0,17.6-3.4,24.3-10.1c6.7-6.7,10-14.8,10-24.4c0-9.5-3.3-17.6-9.9-24.2C81.1,94,73,90.7,63.4,90.7z"/>
<path class="st0" d="M179.7,123.6v2h-66.9c0.6,9.8,3.9,17.8,9.8,24.2c6,6.3,13.2,9.5,21.8,9.5c5.8,0,11.1-1.7,16.1-5.1
	c5-3.4,8.8-8,11.6-13.8h4.2c-2.7,6.9-7,12.3-12.8,16.4c-5.8,4.1-12.2,6.1-19.1,6.1c-9.7,0-18-3.8-25.1-11.5
	c-7.1-7.7-10.6-16.7-10.6-27c0-10.3,3.5-19.1,10.4-26.4c6.9-7.3,15.3-10.9,25-10.9c9.6,0,17.9,3.6,24.9,10.9
	C176.2,105.3,179.7,113.8,179.7,123.6z M112.9,121.8h62.8c-0.7-8.7-4.1-16-10.2-22.1c-6.1-6.1-13.2-9.1-21.3-9.1
	c-8.2,0-15.2,2.9-21.1,8.7C117.3,105.3,113.9,112.9,112.9,121.8z"/>
<path class="st0" d="M246.9,162.9c-7.6,0-14.1-2.6-19.4-7.8c-5.3-5.1-8.3-11.6-9-19.7h4.1c1,7.5,3.6,13.1,8,17.4
	c4.3,4.3,9.8,6.4,16.3,6.4c6.8,0,12.6-2.3,17.4-6.9c4.8-4.6,7.2-10.3,7.2-17.1c0-9.1-3.8-15.7-11.3-20c-2.8-1.6-7.4-3.2-13.8-4.8
	c-10.2-2.6-17-6.2-20.7-10.6c-3.3-4.1-5-9.1-5-14.8c0-7.6,2.5-13.9,7.6-18.9c5.1-5,11.4-7.6,19-7.6c6.8,0,12.5,2.2,17,6.4
	c4.5,4.2,7.2,10,8.2,17.3h-4.1c-2.4-13.3-9.5-20-21.6-20c-6.5,0-11.8,2-16,6.2c-4.2,4.1-6.3,9.4-6.3,15.7c0,5.6,1.7,10.2,5.1,13.5
	c3.4,3.4,9,6,16.7,7.9c8.7,2.1,14.8,4.4,18.2,7c7,5.1,10.6,12.5,10.6,22.1c0,7.9-2.8,14.5-8.3,20
	C261.5,160.1,254.8,162.9,246.9,162.9z"/>
<path class="st0" d="M319.2,162.9c-10,0-18.5-3.7-25.7-11.1c-7.2-7.4-10.8-16.2-10.8-26.5c0-10.7,3.5-19.7,10.6-27.1
	c7.1-7.4,15.7-11.1,26-11.1c10.3,0,19.1,3.7,26.3,11c7.2,7.4,10.8,16.3,10.8,26.7c0,10.5-3.6,19.4-10.9,26.9
	C338.2,159.2,329.5,162.9,319.2,162.9z M319.7,90.7c-9.2,0-17.1,3.3-23.5,10c-6.4,6.7-9.6,14.8-9.6,24.3c0,9.5,3.2,17.6,9.6,24.3
	c6.4,6.7,14.2,10,23.3,10c9.1,0,16.9-3.4,23.4-10.1c6.5-6.7,9.7-14.8,9.7-24.2c0-9.5-3.2-17.6-9.6-24.3
	C336.6,94,328.8,90.7,319.7,90.7z"/>
<path class="st0" d="M427.4,88.8h3.8v72.3h-3.8v-14.3c-2.6,4.2-5.5,7.4-8.3,9.5c-5.7,4.3-12.5,6.5-20.3,6.5
	c-10.2,0-18.3-3.3-24.3-9.8c-2.9-3.2-4.9-6.7-6-10.4c-1.1-3.7-1.6-9-1.6-15.7V88.8h3.8v38c0,6.1,0.5,10.9,1.5,14.2
	c1,3.3,2.8,6.4,5.6,9.3c5.4,5.9,12.4,8.9,21,8.9c9.9,0,17.6-3.6,23.2-10.9c2.6-3.4,4.3-7,4.9-10.9c0.4-2.2,0.6-6.2,0.6-12.1V88.8z"
	/>
<path class="st0" d="M442.5,92.6v-3.8h45.7v3.7l-43.6,64.9h45.9v3.8h-50.4v-3.7l43.4-64.8H442.5z"/>
<path class="st0" d="M565.2,88.8h3.8v72.3h-3.8V142c-6.9,13.9-18.1,20.8-33.4,20.8c-10.7,0-19.7-3.6-27.1-10.9
	c-7.4-7.3-11-16.2-11-26.8c0-10.6,3.7-19.6,11-27c7.4-7.4,16.2-11.1,26.7-11.1c9.5,0,17.8,3.1,25,9.2c3.4,2.9,6.6,6.8,8.9,11.6V88.8
	z M531.4,90.7c-9.5,0-17.6,3.3-24.1,10c-6.6,6.7-9.8,14.8-9.8,24.4c0,9.5,3.3,17.6,10,24.2c6.7,6.6,14.8,9.9,24.3,9.9
	c9.4,0,17.4-3.3,23.8-9.8c6.5-6.6,9.7-14.6,9.7-24.1c0-9.5-3.3-17.7-9.9-24.4C548.7,94.1,540.8,90.7,531.4,90.7z"/>
<rect x="97.3" y="193.9" class="st1" width="2.9" height="31.5"/>
<polygon class="st1" points="153.4,220.4 134.3,193.9 131.1,193.9 131.1,225.4 134,225.4 134,198.6 153.5,225.4 156.3,225.4 
	156.3,193.9 153.4,193.9 "/>
<path class="st1" d="M202.8,209.5c-1.2-0.8-3.1-1.5-5.9-2.2c-2.2-0.5-3.8-1.3-4.7-2.1c-0.9-0.8-1.3-2-1.3-3.4c0-1.6,0.6-3,1.7-4
	c1.1-1.1,2.6-1.6,4.3-1.6c3.3,0,5.1,1.7,5.8,5.2l0.1,0.7h3l-0.1-1c-0.3-2.3-1.3-4.2-2.8-5.6c-1.5-1.4-3.5-2.1-5.8-2.1
	c-2.6,0-4.7,0.8-6.4,2.5c-1.7,1.7-2.6,3.8-2.6,6.2c0,1.9,0.6,3.6,1.7,5c1.2,1.5,3.5,2.6,6.8,3.4c1.9,0.5,3.2,0.9,4,1.4
	c2.1,1.1,3,2.8,3,5.2c0,1.8-0.6,3.2-1.9,4.5c-1.3,1.2-2.9,1.8-4.8,1.8c-1.8,0-3.3-0.6-4.4-1.7c-1.2-1.1-1.9-2.7-2.2-4.6l-0.1-0.8h-3
	l0.1,1c0.2,2.6,1.2,4.7,3,6.4c1.8,1.7,4,2.5,6.5,2.5c2.6,0,4.9-0.9,6.8-2.7c1.9-1.8,2.8-4,2.8-6.6
	C206.4,213.6,205.2,211.2,202.8,209.5z"/>
<polygon class="st1" points="237.3,196.8 245.4,196.8 245.4,225.4 248.3,225.4 248.3,196.8 256.4,196.8 256.4,193.9 237.3,193.9 "/>
<rect x="287.4" y="193.9" class="st1" width="3.2" height="31.5"/>
<polygon class="st1" points="321.5,196.8 329.3,196.8 329.3,225.4 332.2,225.4 332.2,196.8 340.3,196.8 340.3,193.9 321.5,193.9 "/>
<path class="st1" d="M388.7,214.2c0,2.1-0.1,3.2-0.2,3.6c-0.2,1.1-0.7,2.1-1.5,3c-1.3,1.6-3.2,2.4-5.5,2.4c-2.3,0-4.2-0.9-5.5-2.7
	c-0.8-1-1.3-2.1-1.5-3.1c-0.1-0.4-0.3-1.6-0.3-3.6v-19.9h-2.9v19.9c0,3.1,0.5,5.5,1.4,7.2c0.8,1.6,2.1,2.8,3.7,3.8
	c1.6,0.9,3.3,1.3,5.1,1.3c3.1,0,5.7-1.1,7.6-3.4c1-1.1,1.6-2.3,1.9-3.5c0.4-1.3,0.5-3.1,0.5-5v-20.3h-2.9V214.2z"/>
<polygon class="st1" points="422.5,196.8 430.3,196.8 430.3,225.4 433.2,225.4 433.2,196.8 441.3,196.8 441.3,193.9 422.5,193.9 "/>
<polygon class="st1" points="490.2,196.8 490.2,193.9 472.3,193.9 472.3,225.4 490.2,225.4 490.2,222.8 475.2,222.8 475.2,211 
	490.2,211 490.2,208.1 475.2,208.1 475.2,196.8 "/>
</svg>
